Coordinates
version=1
nRows=11
nColumns=36
inDegrees=yes

Units are S.I. units (second, meters, Newtons, ...)
If the header above contains a line with 'inDegrees', this indicates whether rotational values are in degrees (yes) or radians (no).

endheader
time	pelvis_tilt	pelvis_list	pelvis_rotation	pelvis_tx	pelvis_ty	pelvis_tz	hip_flexion_r	hip_adduction_r	hip_rotation_r	knee_angle_r	knee_angle_r_beta	ankle_angle_r	subtalar_angle_r	mtp_angle_r	hip_flexion_l	hip_adduction_l	hip_rotation_l	knee_angle_l	knee_angle_l_beta	ankle_angle_l	subtalar_angle_l	mtp_angle_l	lumbar_extension	lumbar_bending	lumbar_rotation	arm_flex_r	arm_add_r	arm_rot_r	elbow_flex_r	pro_sup_r	arm_flex_l	arm_add_l	arm_rot_l	elbow_flex_l	pro_sup_l
     44.98333330	      4.11524514	     -0.20332973	     -4.33827806	      0.47613186	      1.01850458	      0.72873777	     17.79435574	     -1.60416334	      0.91906131	      5.85958191	      0.10226900	      2.15022117	     -2.68778718	     -7.49999987	    -12.68748284	      1.03643509	     -1.01722016	     11.31889210	      0.19755193	     11.78501239	     -6.20323403	     -7.49999987	    -16.30371783	     -1.34427962	      7.82110242	     -6.08887081	    -15.03401016	     -6.23772281	     33.75659728	     88.57096889	     19.28711111	    -14.79172199	     29.07540040	     30.15603199	     87.46411453
     45.00000000	      3.99426052	     -0.40580886	     -4.05490451	      0.48039380	      1.01736952	      0.73207346	     17.76252503	     -1.17891778	      0.37088583	      5.25946708	      0.09179502	      1.98961143	     -1.65303822	     -7.49999987	    -13.21035935	      0.50572486	     -1.49659191	     11.77503017	      0.20551305	     11.53976342	     -6.87940156	     -7.49999987	    -16.08037990	     -0.95083883	      7.55591814	     -5.77931604	    -14.98940647	     -5.77834434	     33.23014609	     87.39554838	     19.31907358	    -14.63268117	     28.92842842	     29.81153087	     85.89497620
     45.01666670	      4.02207551	     -0.77488773	     -3.80742745	      0.48616383	      1.01671205	      0.73514052	     17.46133626	     -0.53876103	      0.17658151	      5.33488529	      0.09311131	      1.41102785	     -1.44393588	     -7.49999987	    -13.94154293	     -0.16127779	     -1.96715782	     12.16247429	      0.21227522	     11.33873347	     -7.18742675	     -7.49999987	    -15.87230791	     -0.34430101	      7.32981484	     -5.54962086	    -14.91006774	     -5.46051333	     32.50156948	     86.76414669	     19.06857007	    -14.32166460	     28.30735223	     29.30450741	     84.94795684
     45.03333330	      4.04088217	     -1.23868084	     -3.64510398	      0.49088297	      1.01757114	      0.73749090	     17.17555772	      0.20031453	     -0.02808064	      6.20150205	      0.10823663	      0.71529297	     -1.53235213	     -7.49999987	    -14.59347061	     -0.87800260	     -2.30180534	     12.68043151	      0.22131528	     11.01940852	     -7.24686926	     -7.49999987	    -15.61263982	      0.39717742	      7.36048594	     -5.59375535	    -14.93339312	     -5.47810572	     32.39289448	     86.79624113	     18.67749482	    -14.09935568	     28.25317672	     29.12079112	     84.95773399
     45.05000000	      4.41771232	     -1.78262397	     -3.38851005	      0.49432684	      1.02073995	      0.73976373	     16.32404259	      0.99569557	      0.19623480	      7.17268956	      0.12518705	     -0.64222346	     -2.47218029	     -7.49999987	    -15.47317326	     -1.69822601	     -2.66442644	     13.45617925	      0.23485463	     10.82497313	     -6.78391194	     -7.49999987	    -15.60745170	      1.24449482	      7.10698232	     -5.25611729	    -14.87465870	     -5.42274006	     31.54450826	     86.92891094	     18.19234574	    -13.42335387	     26.97887997	     27.86269699	     84.76115083
     45.06666670	      4.63201640	     -2.25168501	     -3.16752622	      0.49859246	      1.02389686	      0.74251443	     15.72468183	      1.69884793	      0.30487537	      8.35502884	      0.14582276	     -1.55954326	     -2.81361284	     -7.49999987	    -15.92163978	     -2.44059487	     -2.95292579	     14.67783786	      0.25617660	     10.43263986	     -6.69503855	     -7.49999987	    -15.42661040	      2.02878589	      6.99535135	     -5.17949730	    -14.87374567	     -5.33232179	     31.11303275	     86.95396755	     17.47293611	    -13.00851205	     26.52629265	     27.34318357	     84.67879518
     45.08333330	      4.83274851	     -2.67160054	     -2.86118169	      0.50420630	      1.02595259	      0.74500496	     15.06272215	      2.34456681	      0.65511736	      9.34463400	      0.16309463	     -2.53367118	     -3.72307325	     -7.49999987	    -16.16697607	     -3.19912825	     -3.36000390	     16.17552042	      0.28231609	      9.88199325	     -6.30331971	     -7.49999987	    -15.08280838	      2.82708612	      5.34941870	     -3.26504263	    -14.97219225	     -2.53534231	     28.61147490	     87.03349826	     15.13832506	    -12.67830102	     21.68609698	     27.40508369	     84.75937763
     45.10000000	      5.12524678	     -3.15268583	     -2.55477038	      0.50874621	      1.02673934	      0.74639666	     14.19771407	      3.03999036	      1.07895743	     10.14919847	      0.17713693	     -3.01672402	     -4.51364482	     -7.49999987	    -16.29149486	     -4.02823145	     -3.71525359	     18.06097685	      0.31522351	      9.16359127	     -6.15262811	     -7.49999987	    -14.89851306	      3.63744682	      5.16576146	     -2.98946550	    -14.94996026	     -2.31922798	     27.94853621	     86.93523961	     14.30294504	    -12.10399919	     21.46915699	     26.23578368	     84.81813593
     45.11666670	      5.24198444	     -3.61683705	     -2.24176063	      0.51077477	      1.02707336	      0.74723674	     13.47280234	      3.70741427	      1.56541504	     10.93799265	      0.19090399	     -2.93305400	     -5.27831906	     -7.49999987	    -15.89696241	     -4.89150069	     -3.97177975	     20.45878089	      0.35707309	      8.27862603	     -6.09459495	     -7.49999987	    -14.42516531	      4.43812134	      4.44696295	     -1.65856857	    -15.09620614	      0.34419316	     25.80003208	     83.63583898	     12.93843395	    -11.67651310	     20.90810838	     25.28830159	     81.96541010
     45.13333330	      5.44932476	     -4.07874855	     -1.97399789	      0.51113895	      1.02815742	      0.74900073	     12.58217375	      4.38330945	      2.17051167	     11.67473540	      0.20376257	     -2.24052848	     -5.96783772	     -7.49999987	    -15.18980791	     -5.75360122	     -3.99578545	     23.44180423	      0.40913667	      6.94223720	     -6.52931714	     -7.49999987	    -14.24938315	      5.18971941	      4.17179121	     -0.82614674	    -15.34818125	      2.02002020	     24.86848147	     82.64489962	     11.92763971	    -11.30737067	     20.92943388	     24.57847137	     81.38182957
     45.15000000	      5.70725192	     -4.55523287	     -1.61962197	      0.51114670	      1.02967989	      0.75169688	     11.58330184	      5.10925831	      2.86594457	     12.35847043	      0.21569600	     -1.34962157	     -7.19623569	     -7.49999987	    -13.92706271	     -6.76565909	     -3.94444283	     27.31606128	      0.47675521	      5.24732731	     -6.93023861	     -7.49999987	    -14.32961126	      5.95209188	      3.74643806	      0.03737383	    -15.75064073	      3.87159484	     24.66417527	     82.66131755	     10.99840654	    -11.13719442	     21.27211183	     24.04227655	     81.87687661
